<?xml version="1.0" standalone="yes"?>
<svg xmlns="http://www.w3.org/2000/svg" width="4096.000000pt" height="4096.000000pt" viewBox="0 0 4096.000000 4096.000000"
 preserveAspectRatio="xMidYMid meet">
<path fill="none" stroke="none" d="M0 0L0 4096L4096 4096L4096 0L0 0z"/>
<path fill="#ffffff" stroke="none" d="M1961 1962L1176 1962L1065 1962C1043.69 1962 1020.73 1959.58 1000 1965.43C964.906 1975.33 939.635 2007.56 938.039 2044C936.318 2083.3 961.994 2119.85 1000 2130.57C1020.73 2136.42 1043.69 2134 1065 2134L1176 2134L1268 2134C1283.08 2134 1299 2132.53 1314 2134.11C1326.28 2135.4 1336.85 2143.66 1350 2143.99C1417.91 2145.65 1486.07 2144 1554 2144L1961 2144L1961 2928L1961 3034C1961 3054.7 1958.75 3076.86 1964.43 3097C1975.51 3136.27 2012.91 3160.72 2053 3158.96C2089.44 3157.37 2121.67 3132.09 2131.57 3097C2137.34 3076.56 2135 3054.01 2135 3033L2135 2923L2135 2144L2557 2144C2627.26 2144 2697.76 2145.71 2768 2143.99C2781.15 2143.66 2791.72 2135.4 2804 2134.11C2841.75 2130.13 2882.02 2134 2920 2134L3031 2134C3052.31 2134 3075.27 2136.42 3096 2130.57C3134.01 2119.85 3159.68 2083.3 3157.96 2044C3156.37 2007.56 3131.09 1975.33 3096 1965.43C3075.27 1959.58 3052.31 1962 3031 1962L2920 1962L2135 1962L2135 1171L2135 1063C2135 1041.99 2137.34 1019.44 2131.57 999C2120.49 959.729 2083.09 935.285 2043 937.039C2006.56 938.634 1974.33 963.907 1964.43 999C1958.58 1019.73 1961 1042.69 1961 1064L1961 1176L1961 1962M1182 938.424C1147.34 942.977 1116.31 948.461 1084 962.861C1063.42 972.034 1044.03 985.334 1027 1000C984.634 1036.5 954.504 1087.07 943.449 1142C936.668 1175.69 938 1209.81 938 1244L938 1380L938 1494C938 1515.65 935.488 1538.95 941.428 1560C953.393 1602.4 995.366 1626.76 1038 1620.71C1047.1 1619.42 1055.83 1616.39 1064 1612.24C1113.26 1587.25 1110 1536.07 1110 1489L1110 1243C1110 1203.06 1105.2 1161.74 1138 1132.17C1171.33 1102.13 1218.64 1110 1260 1110L1473 1110C1507.58 1110 1547.57 1115.96 1579 1098.69C1643.02 1063.5 1631.52 964.301 1563 942.344C1545.53 936.748 1527.08 938 1509 938L1430 938L1265 938C1237.96 938 1208.8 934.904 1182 938.424M2553 938.424C2531.07 941.34 2511.32 949.189 2496.17 966C2457.49 1008.91 2472.44 1079.01 2525 1102.69C2555.33 1116.35 2595.54 1110 2628 1110L2838 1110C2884.75 1110 2936.61 1101.95 2968.76 1144C2992.95 1175.64 2986 1218.67 2986 1256L2986 1503C2986 1521.9 2984.24 1541.61 2989.43 1560C2999.96 1597.33 3036.85 1624.59 3076 1621.91C3119.93 1618.9 3154.87 1585.31 3157.91 1541C3159.88 1512.29 3158 1482.79 3158 1454L3158 1281C3158 1209.52 3163.3 1136.82 3127.14 1072C3115.61 1051.34 3101.74 1031.77 3085 1015C3052.52 982.468 3011.83 957.686 2967 946.475C2930.93 937.456 2894.9 938 2858 938L2736 938L2615 938C2594.77 938 2573.05 935.759 2553 938.424M1017 2474.42C977.96 2479.61 945.512 2505.62 939.275 2546C935.618 2569.68 938 2595.06 938 2619L938 2753L938 2860C938 2904.45 938.584 2946.49 953.344 2989C961.284 3011.87 973.178 3033.4 987.294 3053C1023.89 3103.82 1080.61 3140.2 1142 3152.55C1175.98 3159.39 1210.51 3158 1245 3158L1386 3158L1499 3158C1521.98 3158 1546.11 3160.32 1568 3151.94C1638.99 3124.76 1638.74 3017.83 1567 2991.7C1535.17 2980.1 1495.39 2986 1462 2986L1256 2986C1208.23 2986 1154.99 2993.68 1124.36 2948C1102.59 2915.53 1110 2871.13 1110 2834L1110 2584C1110 2565.27 1110.83 2546.9 1104.3 2529C1091.83 2494.77 1053.82 2469.53 1017 2474.42M3065 2474.42C3054.98 2475.76 3045.24 2477.45 3036 2481.78C3028.36 2485.36 3021.37 2489.74 3015 2495.29C2980.99 2524.88 2986 2568.4 2986 2609L2986 2852C2986 2891.77 2991.01 2933 2959 2962.91C2925.93 2993.81 2878.55 2986 2837 2986L2620 2986C2585.63 2986 2545.82 2980.07 2515 2998.45C2452.07 3035.99 2465.98 3134.82 2536 3154.57C2553.75 3159.58 2572.76 3158 2591 3158L2679 3158L2841 3158C2874.83 3158 2909.53 3160.18 2943 3154.56C2971.42 3149.8 2999.91 3140.78 3025 3126.42C3046.65 3114.04 3066.34 3099.67 3084 3082C3125.4 3040.58 3151.29 2984.22 3156.83 2926C3159.63 2896.62 3158 2866.52 3158 2837L3158 2694L3158 2595C3158 2574.8 3160.03 2553.56 3153.97 2534C3142.62 2497.33 3104.15 2469.22 3065 2474.42z"/>
</svg>
