<?xml version="1.0" standalone="yes"?>
<svg xmlns="http://www.w3.org/2000/svg" width="4096.000000pt" height="4096.000000pt" viewBox="0 0 4096.000000 4096.000000"
 preserveAspectRatio="xMidYMid meet">
<path fill="none" stroke="none" d="M0 0L0 4096L4096 4096L4096 0L0 0z"/>
<path fill="#ffffff" stroke="none" d="M1002 768.424C970.749 772.531 941.836 779.068 913 792.309C893.169 801.414 874.711 813.97 858 827.92C811.185 866.999 778.856 924.552 770.286 985C765.586 1018.14 768 1052.58 768 1086L768 1219L768 1329C768 1348.4 765.152 1370.24 770.721 1389C782.544 1428.83 822.039 1456.58 864 1450.57C873.692 1449.18 883.213 1446.63 892 1442.24C943.209 1416.65 939 1364.68 939 1316L939 1074C939 1032.23 934.689 990.797 969 960.174C1001.59 931.085 1049.76 939 1090 939L1303 939C1336.58 939 1376.42 945.271 1407 928.691C1472.12 893.389 1461.69 792.822 1391 771.205C1374.95 766.297 1357.57 768 1341 768L1257 768L1088 768C1059.99 768 1029.76 764.776 1002 768.424M2718 768.428C2635.12 780.304 2618.71 897.296 2695 931.688C2725.41 945.395 2765.42 939 2798 939L3009 939C3055.17 939 3107.39 931.309 3139.1 973C3163.58 1005.18 3157 1048.05 3157 1086L3157 1333C3157 1352.98 3155.03 1373.71 3161.19 1393C3173.28 1430.8 3211.94 1454.56 3251 1450.83C3289.24 1447.18 3320 1418.58 3327.2 1381C3330.82 1362.06 3328 1340.27 3328 1321L3328 1092C3328 1022 3329.99 956.702 3293.58 894C3282.7 875.267 3269.29 858.291 3254 843C3221 810 3179.58 785.705 3134 774.884C3099.59 766.716 3065.11 768 3030 768L2898 768L2779 768C2759.17 768 2737.62 765.616 2718 768.428M1352 1280.44C1315.51 1286.14 1281.73 1317.71 1280.04 1356C1278.05 1401.14 1280 1446.81 1280 1492L1280 1763L1280 1855C1280 1880.31 1279.07 1904.16 1294.21 1926C1328.38 1975.31 1393.98 1963 1446 1963L1746 1963L1841 1963C1859.09 1963 1878.2 1964.82 1896 1961.19C1927.96 1954.69 1954.08 1928.85 1960.99 1897C1964.97 1878.62 1963 1858.72 1963 1840L1963 1465L1963 1391C1963 1361.75 1963.42 1335.23 1944.33 1311C1909.28 1266.52 1840.78 1280 1791 1280L1496 1280L1401 1280C1385.12 1280 1367.69 1277.99 1352 1280.44M2304 1621L2304 1451L2526 1451L2680 1451C2706.03 1451 2736.21 1455.26 2761 1445.94C2811.45 1426.95 2832.6 1363.16 2802.64 1318C2770.49 1269.54 2711.22 1280 2661 1280L2302 1280C2256.13 1280 2195.17 1268.34 2159 1303.04C2131.76 1329.17 2133 1362.22 2133 1397L2133 1560L2133 1676C2133 1701.64 2130.93 1726.91 2144.23 1750C2175.6 1804.44 2242.96 1792 2296 1792L2688 1792C2709.17 1792 2732.31 1794.67 2753 1789.76C2785.72 1782.01 2810.45 1752.69 2815.56 1720C2823.13 1671.52 2787.8 1625.83 2739 1621.17C2691.92 1616.67 2642.31 1621 2595 1621L2304 1621z"/>
<path fill="#none" stroke="none" d="M1451 1451L1451 1792L1792 1792L1792 1451L1451 1451z"/>
<path fill="#ffffff" stroke="none" d="M1962 2645L1792 2645L1792 2276C1792 2232.61 1799.78 2183.44 1762 2152.46C1755.38 2147.04 1747.84 2142.67 1740 2139.29C1691.51 2118.38 1632.57 2149.08 1622.61 2201C1619.55 2216.95 1621 2233.82 1621 2250L1621 2333L1621 2594L1621 2700C1621 2720.51 1618.62 2742.54 1626.45 2762C1638.07 2790.85 1665.26 2813.72 1697 2815.91C1730.66 2818.23 1765.25 2816 1799 2816L2003 2816C2048.98 2816 2094.33 2819.73 2121.94 2775C2135.51 2753 2134 2727.77 2134 2703L2134 2589L2134 2134L2419 2134L2598 2134L2703 2134C2726.67 2134 2750.49 2135.43 2772 2123.69C2830.91 2091.52 2830.6 2001.65 2770 1971.27C2747.71 1960.1 2723.18 1962 2699 1962L2589 1962L2171 1962L2078 1962C2043.58 1962 2010.53 1961.78 1985.09 1989C1961.57 2014.17 1962 2044.81 1962 2077L1962 2171L1962 2645M1355 2133.43C1345.08 2134.78 1335.98 2137.26 1327 2141.75C1319.79 2145.36 1312.94 2149.58 1307 2155.09C1273.87 2185.84 1280 2229.06 1280 2270L1280 2587L1280 2690C1280 2707.28 1278.06 2725.86 1280.29 2743C1286.39 2789.91 1331.01 2821.36 1377 2815.71C1386.29 2814.57 1395.62 2811.91 1404 2807.73C1455.7 2781.94 1451 2728.91 1451 2680L1451 2365L1451 2262C1451 2244.67 1452.83 2226.2 1450.71 2209C1445 2162.46 1402.32 2126.98 1355 2133.43M2376 2304.44C2341.41 2309.84 2313.46 2335.91 2305.65 2370C2302.9 2382.02 2304 2394.73 2304 2407L2304 2469L2304 2668C2304 2705.05 2296.54 2749.13 2319.43 2781C2347.11 2819.54 2388.95 2816 2431 2816L2642 2816L2709 2816C2721.05 2816 2734.13 2817.43 2746 2815.2C2780.18 2808.77 2807.07 2783.05 2814.58 2749C2817.21 2737.03 2816 2724.2 2816 2712L2816 2649L2816 2449C2816 2411.32 2823.27 2367.65 2798.33 2336C2769.11 2298.91 2726.08 2304 2684 2304L2478 2304C2445.15 2304 2408.43 2299.37 2376 2304.44z"/>
<path fill="#none" stroke="none" d="M2475 2475L2475 2645L2645 2645L2645 2475L2475 2475z"/>
<path fill="#ffffff" stroke="none" d="M843 2645.43C805.23 2650.57 773.314 2679.33 768.289 2718C764.936 2743.8 768 2771.97 768 2798L768 2957C768 3020.45 759.743 3089.86 779.67 3151C787.718 3175.69 799.275 3198.64 814.026 3220C850.946 3273.47 909.497 3310.85 973 3323.55C1004.91 3329.93 1037.64 3328 1070 3328L1214 3328L1330 3328C1353.17 3328 1377.01 3330.51 1399 3321.94C1468.74 3294.74 1466.97 3188.2 1397 3162.7C1365.14 3151.08 1325.48 3157 1292 3157L1086 3157C1037.7 3157 984.086 3164.32 953.356 3118C931.783 3085.48 939 3041.08 939 3004L939 2757C939 2738.51 940.475 2719.8 934.484 2702C921.864 2664.5 882.21 2640.09 843 2645.43M3232 2645.43C3222.31 2646.82 3212.79 2649.37 3204 2653.76C3152.79 2679.35 3157 2731.32 3157 2780L3157 3021C3157 3062.64 3161.48 3103.89 3128 3134.91C3095.87 3164.68 3048.16 3157 3008 3157L2789 3157C2754.34 3157 2714.75 3150.92 2684 3170.23C2621.36 3209.57 2638.79 3307.35 2709 3325.84C2725.2 3330.11 2743.38 3328 2760 3328L2852 3328L3014 3328C3049.68 3328 3085.75 3330.12 3121 3323.92C3147.83 3319.2 3174.37 3309.33 3198 3295.85C3217.28 3284.85 3235.28 3271.71 3251 3256C3292.68 3214.34 3319.6 3161.71 3326.71 3103C3330.57 3071.24 3328 3037.98 3328 3006L3328 2860L3328 2762C3328 2744.38 3330.28 2725.11 3325.57 2708C3314.46 2667.58 3274.15 2639.39 3232 2645.43z"/>
</svg>
