<?xml version="1.0" standalone="yes"?>
<svg xmlns="http://www.w3.org/2000/svg"  width="4096.000000pt" height="4096.000000pt" viewBox="0 0 4096.000000 4096.000000"
 preserveAspectRatio="xMidYMid meet">
<path fill="none" stroke="none" d="M0 0L0 4096L4096 4096L4096 0L0 0z"/>
<path fill="#ffffff" stroke="none" d="M1182 938.424C1147.34 942.977 1116.31 948.461 1084 962.861C1063.42 972.034 1044.03 985.334 1027 1000C984.634 1036.5 954.504 1087.07 943.449 1142C936.668 1175.69 938 1209.81 938 1244L938 1380L938 1494C938 1515.65 935.488 1538.95 941.428 1560C953.393 1602.4 995.366 1626.76 1038 1620.71C1047.1 1619.42 1055.83 1616.39 1064 1612.24C1113.26 1587.25 1110 1536.07 1110 1489L1110 1243C1110 1203.06 1105.2 1161.74 1138 1132.17C1171.33 1102.13 1218.64 1110 1260 1110L1473 1110C1507.58 1110 1547.57 1115.96 1579 1098.69C1643.02 1063.5 1631.52 964.301 1563 942.344C1545.53 936.748 1527.08 938 1509 938L1430 938L1265 938C1237.96 938 1208.8 934.904 1182 938.424M2553 938.424C2531.07 941.34 2511.32 949.189 2496.17 966C2457.49 1008.91 2472.44 1079.01 2525 1102.69C2555.33 1116.35 2595.54 1110 2628 1110L2838 1110C2884.75 1110 2936.61 1101.95 2968.76 1144C2992.95 1175.64 2986 1218.67 2986 1256L2986 1503C2986 1521.9 2984.24 1541.61 2989.43 1560C2999.96 1597.33 3036.85 1624.59 3076 1621.91C3119.93 1618.9 3154.87 1585.31 3157.91 1541C3159.88 1512.29 3158 1482.79 3158 1454L3158 1281C3158 1209.52 3163.3 1136.82 3127.14 1072C3115.61 1051.34 3101.74 1031.77 3085 1015C3052.52 982.468 3011.83 957.686 2967 946.475C2930.93 937.456 2894.9 938 2858 938L2736 938L2615 938C2594.77 938 2573.05 935.759 2553 938.424M1648 1480.44C1621.17 1484.75 1604.06 1501.49 1585.96 1520.01C1566.52 1539.92 1548.37 1561.08 1528.96 1581.01C1511.15 1599.31 1493.99 1618.3 1476.7 1637.09C1461.84 1653.23 1447.36 1667.2 1439.17 1688C1430.37 1710.33 1432 1734.46 1432 1758L1432 1862L1432 2235L1432 2395C1432 2436.64 1430.94 2476.22 1461.17 2508.99C1490.68 2540.97 1531.8 2542 1572 2542L1742 2542L2305 2542L2483 2542C2514.92 2542 2549.63 2545.74 2581 2538.99C2591.59 2536.7 2601.66 2532.59 2611 2527.14C2672.53 2491.24 2664 2422.18 2664 2361L2664 1854L2664 1750C2664 1713.64 2664.16 1678.97 2640.33 1649C2597.26 1594.82 2516.96 1610 2456 1610L2140 1610L2041 1610C2026.9 1610 2008.66 1613.11 1995 1609.68C1983.54 1606.81 1970.22 1587.27 1962 1579C1943.91 1560.77 1926.05 1542.3 1908.01 1524C1898.25 1514.1 1889.67 1503.34 1878 1495.52C1850.86 1477.32 1821.08 1480 1790 1480L1696 1480C1680.47 1480 1663.34 1477.98 1648 1480.44z"/>
<path fill="#none" stroke="none" d="M2038 1774.42C2020.6 1776.71 2003.27 1777.24 1986 1781.24C1934.08 1793.23 1885.27 1818 1845.96 1854.18C1817.84 1880.07 1794.43 1911.53 1777.9 1946C1705.2 2097.57 1771.87 2286.14 1926 2355.99C1980.06 2380.48 2039.47 2387.52 2098 2379.82C2253.67 2359.34 2366.45 2210.94 2355.91 2057C2347.14 1928.89 2255.94 1819.9 2133 1785.09C2103.63 1776.78 2068.59 1770.41 2038 1774.42z"/>
<path fill="#ffffff" stroke="none" d="M2040 1863.42C1986.81 1870.41 1939.17 1885.84 1900 1925C1802.82 2022.19 1821.24 2191.74 1940 2263C1958.22 2273.94 1978.19 2283.05 1999 2287.79C2025.4 2293.8 2053 2296.22 2080 2292.71C2182.74 2279.36 2263.43 2191.57 2267.96 2088C2272.57 1982.72 2196.8 1886.12 2093 1866.74C2076.14 1863.59 2057.14 1861.17 2040 1863.42M1017 2474.42C977.96 2479.61 945.512 2505.62 939.275 2546C935.618 2569.68 938 2595.06 938 2619L938 2753L938 2860C938 2904.45 938.584 2946.49 953.344 2989C961.284 3011.87 973.178 3033.4 987.294 3053C1023.89 3103.82 1080.61 3140.2 1142 3152.55C1175.98 3159.39 1210.51 3158 1245 3158L1386 3158L1499 3158C1521.98 3158 1546.11 3160.32 1568 3151.94C1638.99 3124.76 1638.74 3017.83 1567 2991.7C1535.17 2980.1 1495.39 2986 1462 2986L1256 2986C1208.23 2986 1154.99 2993.68 1124.36 2948C1102.59 2915.53 1110 2871.13 1110 2834L1110 2584C1110 2565.27 1110.83 2546.9 1104.3 2529C1091.83 2494.77 1053.82 2469.53 1017 2474.42M3065 2474.42C3054.98 2475.76 3045.24 2477.45 3036 2481.78C3028.36 2485.36 3021.37 2489.74 3015 2495.29C2980.99 2524.88 2986 2568.4 2986 2609L2986 2852C2986 2891.77 2991.01 2933 2959 2962.91C2925.93 2993.81 2878.55 2986 2837 2986L2620 2986C2585.63 2986 2545.82 2980.07 2515 2998.45C2452.07 3035.99 2465.98 3134.82 2536 3154.57C2553.75 3159.58 2572.76 3158 2591 3158L2679 3158L2841 3158C2874.83 3158 2909.53 3160.18 2943 3154.56C2971.42 3149.8 2999.91 3140.78 3025 3126.42C3046.65 3114.04 3066.34 3099.67 3084 3082C3125.4 3040.58 3151.29 2984.22 3156.83 2926C3159.63 2896.62 3158 2866.52 3158 2837L3158 2694L3158 2595C3158 2574.8 3160.03 2553.56 3153.97 2534C3142.62 2497.33 3104.15 2469.22 3065 2474.42z"/>
</svg>
