<?xml version="1.0" standalone="yes"?>
<svg xmlns="http://www.w3.org/2000/svg" width="4096.000000pt" height="4096.000000pt" viewBox="0 0 4096.000000 4096.000000"
 preserveAspectRatio="xMidYMid meet">
  <path fill="#ffffff" stroke="none" d="M1182 938.424C1147.34 942.977 1116.31 948.461 1084 962.861C1063.42 972.034 1044.03 985.334 1027 1000C984.634 1036.5 954.504 1087.07 943.449 1142C936.668 1175.69 938 1209.81 938 1244L938 1380L938 1494C938 1515.65 935.488 1538.95 941.428 1560C953.393 1602.4 995.366 1626.76 1038 1620.71C1047.1 1619.42 1055.83 1616.39 1064 1612.24C1113.26 1587.25 1110 1536.07 1110 1489L1110 1243C1110 1203.06 1105.2 1161.74 1138 1132.17C1171.33 1102.13 1218.64 1110 1260 1110L1473 1110C1507.58 1110 1547.57 1115.96 1579 1098.69C1643.02 1063.5 1631.52 964.301 1563 942.344C1545.53 936.748 1527.08 938 1509 938L1430 938L1265 938C1237.96 938 1208.8 934.904 1182 938.424M2553 938.424C2531.07 941.34 2511.32 949.189 2496.17 966C2457.49 1008.91 2472.44 1079.01 2525 1102.69C2555.33 1116.35 2595.54 1110 2628 1110L2838 1110C2884.75 1110 2936.61 1101.95 2968.76 1144C2992.95 1175.64 2986 1218.67 2986 1256L2986 1503C2986 1521.9 2984.24 1541.61 2989.43 1560C2999.96 1597.33 3036.85 1624.59 3076 1621.91C3119.93 1618.9 3154.87 1585.31 3157.91 1541C3159.88 1512.29 3158 1482.79 3158 1454L3158 1281C3158 1209.52 3163.3 1136.82 3127.14 1072C3115.61 1051.34 3101.74 1031.77 3085 1015C3052.52 982.468 3011.83 957.686 2967 946.475C2930.93 937.456 2894.9 938 2858 938L2736 938L2615 938C2594.77 938 2573.05 935.759 2553 938.424M1996 1305L1997 1308L1998 1308L1999 1305L1996 1305z"/>
  <path fill="#ffffff" stroke="none" d="M1927 1628C1929.89 1650.89 1928 1674.93 1928 1698L1928 1823L1928 2209C1928 2264.45 1914.26 2338.38 1971.04 2371.85C1977.87 2375.87 1985.33 2379.77 1993 2381.82C2001.35 2384.06 2012.52 2387.96 2021 2387.96C2029.48 2387.96 2040.65 2384.06 2049 2381.82C2056.78 2379.74 2064.08 2375.98 2070.96 2371.85C2127.73 2337.77 2114 2263.95 2114 2208L2114 1823L2114 1698C2114 1674.93 2112.11 1650.89 2115 1628C2126.26 1635.9 2135.35 1647.17 2145.05 1656.84C2166.9 1678.61 2188.86 1700.28 2210.63 1722.13C2223.57 1735.12 2236.04 1749.9 2251 1760.57C2309.29 1802.17 2398.88 1762.47 2399 1688C2399.01 1680.09 2399.31 1671.71 2397.29 1664C2386 1621.08 2346.18 1592.18 2316 1562C2253.67 1499.67 2191.41 1437.23 2129 1375C2098.27 1344.36 2068.34 1305.97 2021 1305.02C1974.41 1304.1 1942.58 1345.42 1913.12 1375.33C1850.66 1438.76 1786.96 1501.04 1724 1564C1694.53 1593.47 1654.24 1622.43 1644.45 1665C1625.59 1747.04 1724.86 1810.13 1791.58 1760.36C1803.44 1751.51 1813.09 1740.16 1823.67 1729.88C1846.32 1707.86 1868.6 1685.39 1890.84 1662.95C1902.36 1651.34 1913.59 1637.41 1927 1628z"/>
  <path fill="#ffffff" stroke="none" d="M2617 2601L2620 2602L2620 2596L2619 2596L2619 2601C2616.3 2591.88 2618 2580.49 2618 2571L2618 2513L2618 2319C2618 2303.1 2619.98 2285.74 2617.79 2270C2612.54 2232.24 2589.72 2201.14 2553 2188.71C2539.29 2184.07 2527.41 2182.89 2513.99 2184.86C2474.38 2190.67 2443.11 2216.66 2432.92 2256C2428.53 2272.97 2431 2292.61 2431 2310L2431 2410L2431 2477C2431 2483.4 2433.71 2496.47 2425 2497.85C2405.68 2500.91 2383.57 2498 2364 2498L2238 2498L1848 2498L1684 2498L1636 2498C1629.91 2498 1620.76 2499.7 1615.06 2497.4C1608.47 2494.74 1611 2481.67 1611 2476L1611 2412L1611 2315C1611 2296.66 1612.91 2277.11 1609.68 2259C1605.1 2233.35 1588.14 2210.64 1566 2197.41C1553.46 2189.91 1540.93 2187.74 1527.04 2184.7C1512.27 2181.47 1496.72 2185.83 1482 2191.23C1449.76 2203.07 1427.22 2236.46 1424.1 2270C1419.79 2316.45 1424 2365.33 1424 2412C1424 2474.01 1420.6 2537.1 1424.04 2599C1426.08 2635.58 1455.27 2672.31 1491 2681.11C1549 2695.4 1614.85 2688 1675 2688L2388 2688L2472 2688C2489.46 2688 2509.8 2690.92 2526.96 2687.77C2560.35 2681.65 2591.56 2665.02 2607.84 2633.71C2613.28 2623.25 2614.89 2612.38 2617 2601z"/>
  <path fill="#ffffff" stroke="none" d="M1017 2474.42C977.96 2479.61 945.512 2505.62 939.275 2546C935.618 2569.68 938 2595.06 938 2619L938 2753L938 2860C938 2904.45 938.584 2946.49 953.344 2989C961.284 3011.87 973.178 3033.4 987.294 3053C1023.89 3103.82 1080.61 3140.2 1142 3152.55C1175.98 3159.39 1210.51 3158 1245 3158L1386 3158L1499 3158C1521.98 3158 1546.11 3160.32 1568 3151.94C1638.99 3124.76 1638.74 3017.83 1567 2991.7C1535.17 2980.1 1495.39 2986 1462 2986L1256 2986C1208.23 2986 1154.99 2993.68 1124.36 2948C1102.59 2915.53 1110 2871.13 1110 2834L1110 2584C1110 2565.27 1110.83 2546.9 1104.3 2529C1091.83 2494.77 1053.82 2469.53 1017 2474.42M3065 2474.42C3054.98 2475.76 3045.24 2477.45 3036 2481.78C3028.36 2485.36 3021.37 2489.74 3015 2495.29C2980.99 2524.88 2986 2568.4 2986 2609L2986 2852C2986 2891.77 2991.01 2933 2959 2962.91C2925.93 2993.81 2878.55 2986 2837 2986L2620 2986C2585.63 2986 2545.82 2980.07 2515 2998.45C2452.07 3035.99 2465.98 3134.82 2536 3154.57C2553.75 3159.58 2572.76 3158 2591 3158L2679 3158L2841 3158C2874.83 3158 2909.53 3160.18 2943 3154.56C2971.42 3149.8 2999.91 3140.78 3025 3126.42C3046.65 3114.04 3066.34 3099.67 3084 3082C3125.4 3040.58 3151.29 2984.22 3156.83 2926C3159.63 2896.62 3158 2866.52 3158 2837L3158 2694L3158 2595C3158 2574.8 3160.03 2553.56 3153.97 2534C3142.62 2497.33 3104.15 2469.22 3065 2474.42z"/>
</svg>
